<svg width="24" height="24" viewBox="0 0 24 24" fill="none" xmlns="http://www.w3.org/2000/svg">
<path d="M19.9999 7H3.99994C2.89537 7 1.99994 7.89543 1.99994 9V19C1.99994 20.1046 2.89537 21 3.99994 21H19.9999C21.1045 21 21.9999 20.1046 21.9999 19V9C21.9999 7.89543 21.1045 7 19.9999 7Z" stroke="#00559F" stroke-width="1.4" stroke-linecap="round" stroke-linejoin="round"/>
<path d="M15.9999 21V5C15.9999 4.46957 15.7892 3.96086 15.4142 3.58579C15.0391 3.21071 14.5304 3 13.9999 3H9.99994C9.46951 3 8.9608 3.21071 8.58573 3.58579C8.21065 3.96086 7.99994 4.46957 7.99994 5V21" stroke="#00559F" stroke-width="1.4" stroke-linecap="round" stroke-linejoin="round"/>
</svg>
