<svg width="30" height="16" viewBox="0 0 30 16" fill="none" xmlns="http://www.w3.org/2000/svg">
<path d="M14.8451 1.89453C12.8584 1.89453 11.2422 3.45429 11.2422 5.37147C11.2422 7.28865 12.8584 8.8484 14.8451 8.8484C16.8317 8.8484 18.448 7.28865 18.448 5.37147C18.448 3.45429 16.8317 1.89453 14.8451 1.89453Z" fill="#6B7280"/>
<path d="M18.9002 11.2584C17.9178 10.5159 16.521 10.1235 14.8607 10.1235C13.2004 10.1235 11.8036 10.5159 10.8213 11.2584C9.75276 12.0659 9.21094 13.2528 9.21094 14.7857C9.21094 15.2215 11.0988 15.9997 14.8607 15.9997C18.6226 15.9997 20.5106 15.2215 20.5106 14.7857C20.5106 13.2528 19.9688 12.0659 18.9002 11.2584Z" fill="#6B7280"/>
<path d="M10.5875 10.9792C10.6756 10.9127 10.7678 10.8497 10.8619 10.7884C10.5934 10.2289 10.2029 9.75217 9.68929 9.36407C8.7069 8.62161 7.31008 8.22925 5.64977 8.22925C3.98946 8.22925 2.59263 8.62161 1.61036 9.36407C0.54182 10.1717 0 11.3585 0 12.8915C0 13.3272 1.88784 14.1054 5.64977 14.1054C6.96314 14.1054 8.04727 14.0104 8.90326 13.8684C9.08722 12.6565 9.65101 11.687 10.5875 10.9792Z" fill="#6B7280"/>
<path d="M28.1058 9.36431C27.1234 8.62186 25.7266 8.22949 24.0663 8.22949C22.4059 8.22949 21.0091 8.62186 20.0269 9.36431C19.5133 9.75241 19.1239 10.2297 18.8555 10.7895C18.9491 10.8505 19.0409 10.9133 19.1286 10.9795C20.0651 11.6872 20.6289 12.6567 20.8129 13.8685C21.6688 14.0105 22.7529 14.1055 24.0663 14.1055C27.8282 14.1055 29.7161 13.3273 29.7161 12.8916C29.7161 11.3587 29.1743 10.1719 28.1058 9.36431Z" fill="#6B7280"/>
<path d="M5.64194 0C3.65531 0 2.03906 1.55975 2.03906 3.47693C2.03906 5.39412 3.65531 6.95387 5.64194 6.95387C7.62857 6.95387 9.24482 5.39412 9.24482 3.47693C9.24482 1.55975 7.62857 0 5.64194 0Z" fill="#6B7280"/>
<path d="M24.0599 0C22.0733 0 20.457 1.55975 20.457 3.47693C20.457 5.39412 22.0733 6.95387 24.0599 6.95387C26.0465 6.95387 27.6628 5.39412 27.6628 3.47693C27.6628 1.55975 26.0465 0 24.0599 0Z" fill="#6B7280"/>
</svg>
