<svg width="12" height="16" viewBox="0 0 12 16" fill="none" xmlns="http://www.w3.org/2000/svg">
<path d="M6.19011 0C4.68773 0.00173034 3.24738 0.609087 2.18505 1.68883C1.12271 2.76856 0.52514 4.23251 0.523438 5.75949C0.523438 7.87854 2.2087 10.2594 3.8386 12.5619C4.62605 13.6743 5.44041 14.8248 6.02879 15.9035C6.04477 15.9327 6.06815 15.9571 6.09651 15.9741C6.12488 15.9911 6.15719 16 6.19011 16C6.22302 16 6.25533 15.9911 6.2837 15.9741C6.31206 15.9571 6.33545 15.9327 6.35142 15.9035C6.9398 14.8248 7.75416 13.6743 8.54161 12.5619C10.1715 10.2594 11.8568 7.87854 11.8568 5.75949C11.8551 4.23251 11.2575 2.76856 10.1952 1.68883C9.13283 0.609087 7.69248 0.00173034 6.19011 0ZM6.19011 8.24413C5.70661 8.24413 5.23397 8.09841 4.83196 7.8254C4.42994 7.55238 4.11661 7.16433 3.93159 6.71032C3.74656 6.25631 3.69815 5.75673 3.79247 5.27476C3.8868 4.79278 4.11963 4.35006 4.46151 4.00258C4.80339 3.65509 5.23898 3.41845 5.71319 3.32258C6.18739 3.22671 6.67892 3.27592 7.12562 3.46397C7.57231 3.65203 7.9541 3.97049 8.22272 4.37909C8.49134 4.78769 8.63471 5.26807 8.63471 5.75949C8.63399 6.41823 8.37621 7.04979 7.91791 7.51559C7.45961 7.9814 6.83823 8.2434 6.19011 8.24413Z" fill="#6B7280"/>
</svg>
