<svg width="17" height="24" viewBox="0 0 17 24" fill="none" xmlns="http://www.w3.org/2000/svg">
<path d="M12.3896 9.33301C13.4942 9.33301 14.3896 8.43758 14.3896 7.33301C14.3896 6.22844 13.4942 5.33301 12.3896 5.33301C11.2851 5.33301 10.3896 6.22844 10.3896 7.33301C10.3896 8.43758 11.2851 9.33301 12.3896 9.33301Z" stroke="#4B5563" stroke-width="1.33333" stroke-linecap="round" stroke-linejoin="round"/>
<path d="M4.38965 14C5.49422 14 6.38965 13.1046 6.38965 12C6.38965 10.8954 5.49422 10 4.38965 10C3.28508 10 2.38965 10.8954 2.38965 12C2.38965 13.1046 3.28508 14 4.38965 14Z" stroke="#4B5563" stroke-width="1.33333" stroke-linecap="round" stroke-linejoin="round"/>
<path d="M12.3896 18.667C13.4942 18.667 14.3896 17.7716 14.3896 16.667C14.3896 15.5624 13.4942 14.667 12.3896 14.667C11.2851 14.667 10.3896 15.5624 10.3896 16.667C10.3896 17.7716 11.2851 18.667 12.3896 18.667Z" stroke="#4B5563" stroke-width="1.33333" stroke-linecap="round" stroke-linejoin="round"/>
<path d="M6.11621 13.0066L10.6695 15.6599" stroke="#4B5563" stroke-width="1.33333" stroke-linecap="round" stroke-linejoin="round"/>
<path d="M10.6629 8.34009L6.11621 10.9934" stroke="#4B5563" stroke-width="1.33333" stroke-linecap="round" stroke-linejoin="round"/>
</svg>
