<svg width="37" height="37" viewBox="0 0 37 37" fill="none" xmlns="http://www.w3.org/2000/svg">
<path d="M6.16674 22.9693C5.02135 21.7991 4.15728 20.3835 3.64 18.8299C3.12272 17.2762 2.96579 15.6252 3.18109 14.0019C3.39639 12.3786 3.97828 10.8256 4.88268 9.46053C5.78708 8.09544 6.99028 6.95406 8.40113 6.12285C9.81198 5.29164 11.3935 4.79239 13.0259 4.66293C14.6583 4.53347 16.2987 4.77718 17.8229 5.37562C19.3472 5.97405 20.7152 6.9115 21.8235 8.11697C22.9318 9.32244 23.7512 10.7643 24.2197 12.3334H26.9792C28.4677 12.3332 29.9168 12.8118 31.1124 13.6984C32.308 14.5851 33.1868 15.8327 33.6188 17.2572C34.0509 18.6816 34.0134 20.2072 33.5118 21.6086C33.0102 23.0101 32.0712 24.213 30.8334 25.0398" stroke="#00559F" stroke-width="1.02778" stroke-linecap="round" stroke-linejoin="round"/>
<path d="M18.5 18.5V32.375" stroke="#00559F" stroke-width="1.02778" stroke-linecap="round" stroke-linejoin="round"/>
<path d="M24.6668 24.6667L18.5002 18.5L12.3335 24.6667" stroke="#00559F" stroke-width="1.02778" stroke-linecap="round" stroke-linejoin="round"/>
</svg>
