<svg width="24" height="24" viewBox="0 0 24 24" fill="none" xmlns="http://www.w3.org/2000/svg">
<path d="M15.2434 10.9211C17.2539 8.91061 17.2539 5.65091 15.2434 3.64039C13.2329 1.62987 9.97316 1.62987 7.96263 3.64039C5.95211 5.65091 5.95211 8.91061 7.96263 10.9211C9.97316 12.9317 13.2329 12.9317 15.2434 10.9211Z" fill="#00559F"/>
<path d="M0.71468 23.9998H22.4889C22.5868 24.0004 22.6837 23.9807 22.7736 23.942C22.8635 23.9032 22.9443 23.8462 23.011 23.7746C23.0777 23.7029 23.1288 23.6182 23.1611 23.5258C23.1934 23.4334 23.2061 23.3353 23.1986 23.2378C22.7364 18.189 17.7209 14.2134 11.6018 14.2134C5.48268 14.2134 0.4672 18.189 0.00505815 23.2378C-0.00252956 23.3353 0.01022 23.4334 0.0424999 23.5258C0.0747798 23.6182 0.125887 23.7029 0.192588 23.7746C0.25929 23.8462 0.340132 23.9032 0.430001 23.942C0.519869 23.9807 0.616807 24.0004 0.71468 23.9998Z" fill="#00559F"/>
</svg>
